<?xml version="1.0" encoding="utf-8"?>
<!-- Generator: Adobe Illustrator 16.0.0, SVG Export Plug-In . SVG Version: 6.00 Build 0)  -->
<!DOCTYPE svg PUBLIC "-//W3C//DTD SVG 1.1//EN" "http://www.w3.org/Graphics/SVG/1.1/DTD/svg11.dtd">
<svg version="1.1" id="Layer_1" xmlns="http://www.w3.org/2000/svg" xmlns:xlink="http://www.w3.org/1999/xlink" x="0px" y="0px"
	 width="640px" height="480px" viewBox="0 0 640 480" enable-background="new 0 0 640 480" xml:space="preserve">
<line fill="none" stroke="#000000" stroke-miterlimit="10" x1="31.76" y1="361.441" x2="482.598" y2="65.631"/>
<path fill="none" stroke="#000000" stroke-miterlimit="10" d="M473.659,56.693"/>
<path fill="none" stroke="#000000" stroke-miterlimit="10" d="M482.598,65.631"/>
<path fill="none" stroke="#000000" stroke-miterlimit="10" d="M25.615,348.313"/>
<path fill="none" stroke="#000000" stroke-miterlimit="10" d="M473.659,56.693"/>
<path fill="none" stroke="#000000" stroke-miterlimit="10" d="M25.615,348.313"/>
<path fill="none" stroke="#000000" stroke-miterlimit="10" d="M31.76,361.441"/>
<polyline stroke="#000000" stroke-miterlimit="10" points="282.327,197.036 377.569,462.5 378,462.5 96,462.5 63.604,400.827 
	118.911,322.056 118.5,322 118.5,305 "/>
<path stroke="#000000" stroke-miterlimit="10" d="M277.263,184.521l-30.39-84.253L247,100.5c0,0-20.992-23.31-36.727-33.869
	c-26.257-17.62-38.547-21.179-73.773-21.179c-40.5,0-53.601,4.559-74.896,18.112C41.97,76.06,26,100.5,26,100.5l-0.385-0.232
	L118.5,175v113"/>
<line fill="none" stroke="#000000" stroke-miterlimit="10" x1="23.76" y1="350.441" x2="474.598" y2="54.631"/>
<line fill="none" stroke="#000000" stroke-miterlimit="10" x1="23.76" y1="350.441" x2="31.76" y2="361.441"/>
<line fill="none" stroke="#000000" stroke-miterlimit="10" x1="474.598" y1="54.631" x2="482.598" y2="65.631"/>
<polyline stroke="#000000" stroke-miterlimit="10" points="421.57,89.424 403.569,83.395 433.736,65.631 430.76,83.395 "/>
<path stroke="#000000" stroke-miterlimit="10" d="M506.198,151.636c-6.992,32.896-38.595,54.051-70.586,47.25
	c-31.988-6.799-52.255-38.98-45.263-71.875l70.584-47.251C492.924,86.561,513.19,118.74,506.198,151.636z"/>
</svg>
